<mxfile host="app.diagrams.net" modified="2021-01-07T12:40:09.050Z" agent="5.0 (Windows NT 10.0; Win64; x64) AppleWebKit/537.36 (KHTML, like Gecko) Chrome/87.0.4280.88 Safari/537.36 Edg/87.0.664.66" etag="iAKVzxcKs7iSFCt0574A" version="14.1.8" type="github">
  <diagram id="QdiXLOukkLgibiNb14Zf" name="第 1 页">
    <mxGraphModel dx="582" dy="1602" grid="1" gridSize="10" guides="1" tooltips="1" connect="1" arrows="1" fold="1" page="1" pageScale="1" pageWidth="827" pageHeight="1169" math="0" shadow="0">
      <root>
        <mxCell id="0" />
        <mxCell id="1" parent="0" />
        <mxCell id="DuAQeA1uJ71l1_xzqsAF-1" value="" style="ellipse;whiteSpace=wrap;html=1;" vertex="1" parent="1">
          <mxGeometry x="120" y="440" width="40" height="40" as="geometry" />
        </mxCell>
        <mxCell id="DuAQeA1uJ71l1_xzqsAF-2" value="&lt;font face=&quot;Times New Roman&quot; style=&quot;font-size: 19px&quot;&gt;x&lt;/font&gt;&lt;font face=&quot;Times New Roman&quot; style=&quot;font-size: 10px&quot;&gt;&lt;sub&gt;2&lt;/sub&gt;&lt;/font&gt;" style="ellipse;whiteSpace=wrap;html=1;" vertex="1" parent="1">
          <mxGeometry x="280" y="440" width="40" height="40" as="geometry" />
        </mxCell>
        <mxCell id="DuAQeA1uJ71l1_xzqsAF-22" style="edgeStyle=orthogonalEdgeStyle;rounded=0;orthogonalLoop=1;jettySize=auto;html=1;exitX=0.5;exitY=0;exitDx=0;exitDy=0;entryX=0.5;entryY=1;entryDx=0;entryDy=0;fontFamily=Times New Roman;fontSize=16;" edge="1" parent="1" source="DuAQeA1uJ71l1_xzqsAF-3" target="DuAQeA1uJ71l1_xzqsAF-7">
          <mxGeometry relative="1" as="geometry" />
        </mxCell>
        <mxCell id="DuAQeA1uJ71l1_xzqsAF-3" value="x&lt;sub&gt;3&lt;br&gt;&lt;/sub&gt;" style="ellipse;whiteSpace=wrap;html=1;fontSize=16;" vertex="1" parent="1">
          <mxGeometry x="400" y="440" width="40" height="40" as="geometry" />
        </mxCell>
        <mxCell id="DuAQeA1uJ71l1_xzqsAF-4" value="&lt;font style=&quot;font-size: 16px&quot;&gt;l&lt;sub&gt;1&lt;/sub&gt;&lt;/font&gt;" style="ellipse;whiteSpace=wrap;html=1;" vertex="1" parent="1">
          <mxGeometry x="280" y="280" width="40" height="40" as="geometry" />
        </mxCell>
        <mxCell id="DuAQeA1uJ71l1_xzqsAF-5" value="" style="ellipse;whiteSpace=wrap;html=1;fontFamily=Times New Roman;" vertex="1" parent="1">
          <mxGeometry x="400" y="280" width="40" height="40" as="geometry" />
        </mxCell>
        <mxCell id="DuAQeA1uJ71l1_xzqsAF-7" value="&lt;span style=&quot;font-size: 16px&quot;&gt;z&lt;/span&gt;&lt;span style=&quot;font-size: 10px&quot;&gt;&lt;sub&gt;3&lt;/sub&gt;&lt;/span&gt;" style="whiteSpace=wrap;html=1;aspect=fixed;" vertex="1" parent="1">
          <mxGeometry x="400" y="360" width="40" height="40" as="geometry" />
        </mxCell>
        <mxCell id="DuAQeA1uJ71l1_xzqsAF-8" value="" style="whiteSpace=wrap;html=1;aspect=fixed;" vertex="1" parent="1">
          <mxGeometry x="200" y="360" width="40" height="40" as="geometry" />
        </mxCell>
        <mxCell id="DuAQeA1uJ71l1_xzqsAF-9" value="" style="endArrow=classic;html=1;exitX=1;exitY=0;exitDx=0;exitDy=0;" edge="1" parent="1" source="DuAQeA1uJ71l1_xzqsAF-1">
          <mxGeometry width="50" height="50" relative="1" as="geometry">
            <mxPoint x="150" y="450" as="sourcePoint" />
            <mxPoint x="200" y="400" as="targetPoint" />
          </mxGeometry>
        </mxCell>
        <mxCell id="DuAQeA1uJ71l1_xzqsAF-10" value="" style="endArrow=classic;html=1;entryX=1;entryY=0;entryDx=0;entryDy=0;" edge="1" parent="1" source="DuAQeA1uJ71l1_xzqsAF-4" target="DuAQeA1uJ71l1_xzqsAF-8">
          <mxGeometry width="50" height="50" relative="1" as="geometry">
            <mxPoint x="195" y="330" as="sourcePoint" />
            <mxPoint x="245" y="280" as="targetPoint" />
          </mxGeometry>
        </mxCell>
        <mxCell id="DuAQeA1uJ71l1_xzqsAF-11" value="&lt;font face=&quot;Times New Roman&quot; style=&quot;font-size: 19px&quot;&gt;x&lt;/font&gt;&lt;font face=&quot;Times New Roman&quot; size=&quot;1&quot;&gt;&lt;sub&gt;1&lt;/sub&gt;&lt;/font&gt;" style="text;html=1;strokeColor=none;fillColor=none;align=center;verticalAlign=middle;whiteSpace=wrap;rounded=0;" vertex="1" parent="1">
          <mxGeometry x="120" y="440" width="40" height="40" as="geometry" />
        </mxCell>
        <mxCell id="DuAQeA1uJ71l1_xzqsAF-12" value="&lt;font style=&quot;font-size: 16px&quot;&gt;z&lt;/font&gt;&lt;font style=&quot;font-size: 13.3333px&quot;&gt;&lt;sub&gt;1&lt;/sub&gt;&lt;/font&gt;" style="text;html=1;strokeColor=none;fillColor=none;align=center;verticalAlign=middle;whiteSpace=wrap;rounded=0;" vertex="1" parent="1">
          <mxGeometry x="200" y="360" width="40" height="40" as="geometry" />
        </mxCell>
        <mxCell id="DuAQeA1uJ71l1_xzqsAF-23" style="edgeStyle=orthogonalEdgeStyle;rounded=0;orthogonalLoop=1;jettySize=auto;html=1;exitX=0.5;exitY=1;exitDx=0;exitDy=0;fontFamily=Times New Roman;fontSize=16;" edge="1" parent="1" source="DuAQeA1uJ71l1_xzqsAF-14" target="DuAQeA1uJ71l1_xzqsAF-7">
          <mxGeometry relative="1" as="geometry" />
        </mxCell>
        <mxCell id="DuAQeA1uJ71l1_xzqsAF-14" value="&lt;font style=&quot;font-size: 16px&quot;&gt;l&lt;sub&gt;2&lt;/sub&gt;&lt;/font&gt;" style="text;html=1;strokeColor=none;fillColor=none;align=center;verticalAlign=middle;whiteSpace=wrap;rounded=0;fontFamily=Times New Roman;" vertex="1" parent="1">
          <mxGeometry x="400" y="280" width="40" height="40" as="geometry" />
        </mxCell>
        <mxCell id="DuAQeA1uJ71l1_xzqsAF-16" value="z&lt;sub&gt;2&lt;/sub&gt;" style="whiteSpace=wrap;html=1;aspect=fixed;fontSize=16;" vertex="1" parent="1">
          <mxGeometry x="280" y="360" width="40" height="40" as="geometry" />
        </mxCell>
        <mxCell id="DuAQeA1uJ71l1_xzqsAF-17" value="" style="endArrow=classic;html=1;fontFamily=Times New Roman;fontSize=16;entryX=0.5;entryY=0;entryDx=0;entryDy=0;exitX=0.5;exitY=1;exitDx=0;exitDy=0;" edge="1" parent="1" source="DuAQeA1uJ71l1_xzqsAF-4" target="DuAQeA1uJ71l1_xzqsAF-16">
          <mxGeometry width="50" height="50" relative="1" as="geometry">
            <mxPoint x="280" y="340" as="sourcePoint" />
            <mxPoint x="330" y="290" as="targetPoint" />
          </mxGeometry>
        </mxCell>
        <mxCell id="DuAQeA1uJ71l1_xzqsAF-18" value="" style="endArrow=classic;html=1;fontFamily=Times New Roman;fontSize=16;entryX=0;entryY=0.5;entryDx=0;entryDy=0;" edge="1" parent="1" target="DuAQeA1uJ71l1_xzqsAF-2">
          <mxGeometry width="50" height="50" relative="1" as="geometry">
            <mxPoint x="160" y="460" as="sourcePoint" />
            <mxPoint x="210" y="410" as="targetPoint" />
          </mxGeometry>
        </mxCell>
        <mxCell id="DuAQeA1uJ71l1_xzqsAF-19" value="" style="endArrow=classic;html=1;fontFamily=Times New Roman;fontSize=16;entryX=0;entryY=0.5;entryDx=0;entryDy=0;" edge="1" parent="1" target="DuAQeA1uJ71l1_xzqsAF-3">
          <mxGeometry width="50" height="50" relative="1" as="geometry">
            <mxPoint x="322" y="460" as="sourcePoint" />
            <mxPoint x="330" y="290" as="targetPoint" />
          </mxGeometry>
        </mxCell>
        <mxCell id="DuAQeA1uJ71l1_xzqsAF-20" value="" style="endArrow=classic;html=1;exitX=1;exitY=0;exitDx=0;exitDy=0;entryX=0.5;entryY=1;entryDx=0;entryDy=0;" edge="1" parent="1" target="DuAQeA1uJ71l1_xzqsAF-16">
          <mxGeometry width="50" height="50" relative="1" as="geometry">
            <mxPoint x="300.0021356237311" y="439.9978643762689" as="sourcePoint" />
            <mxPoint x="345.86" y="394.14" as="targetPoint" />
          </mxGeometry>
        </mxCell>
        <mxCell id="DuAQeA1uJ71l1_xzqsAF-24" value="状态节点" style="text;html=1;strokeColor=none;fillColor=none;align=center;verticalAlign=middle;whiteSpace=wrap;rounded=0;fontFamily=Times New Roman;fontSize=16;" vertex="1" parent="1">
          <mxGeometry x="40" y="440" width="80" height="40" as="geometry" />
        </mxCell>
        <mxCell id="DuAQeA1uJ71l1_xzqsAF-25" value="观测节点" style="text;html=1;strokeColor=none;fillColor=none;align=center;verticalAlign=middle;whiteSpace=wrap;rounded=0;fontFamily=Times New Roman;fontSize=16;" vertex="1" parent="1">
          <mxGeometry x="120" y="360" width="80" height="40" as="geometry" />
        </mxCell>
        <mxCell id="DuAQeA1uJ71l1_xzqsAF-26" value="路标点" style="text;html=1;strokeColor=none;fillColor=none;align=center;verticalAlign=middle;whiteSpace=wrap;rounded=0;fontFamily=Times New Roman;fontSize=16;" vertex="1" parent="1">
          <mxGeometry x="200" y="280" width="80" height="40" as="geometry" />
        </mxCell>
      </root>
    </mxGraphModel>
  </diagram>
</mxfile>
